<?xml version="1.0" encoding="utf-8"?>
<!-- Generator: Adobe Illustrator 16.0.0, SVG Export Plug-In . SVG Version: 6.00 Build 0)  -->
<!DOCTYPE svg PUBLIC "-//W3C//DTD SVG 1.1//EN" "http://www.w3.org/Graphics/SVG/1.1/DTD/svg11.dtd">
<svg version="1.1" id="Layer_1" xmlns="http://www.w3.org/2000/svg" xmlns:xlink="http://www.w3.org/1999/xlink" x="0px" y="0px"
	 width="1124.886px" height="200.002px" viewBox="0 0 1124.886 200.002" enable-background="new 0 0 1124.886 200.002"
	 xml:space="preserve">
<g>
	<path fill-rule="evenodd" clip-rule="evenodd" fill="#F36F21" d="M-0.001,41.021l-0.016,20c0,0,2.99,1.479,4.823,8.813
		l15.458,82.875h33.042L64.28,99.349l9.734,53.359h33.625l15.125-80.875c0,0,1-7.844,4.906-11V41.021H89.952v20.094
		c0,0,4.219,1.625,3.563,6.469l-3.406,34.344h-0.266l-1.5-7.406l-10.828-53.5H56.202l-11.719,61l-0.313-0.016L42.015,84
		l-2.083-16.708c0,0-0.511-3.021,2.208-5.396l1.406-1.063l-0.094-19.813H-0.001z"/>
	<path fill-rule="evenodd" clip-rule="evenodd" fill="#F36F21" d="M558.093,41.021l-0.016,20c0,0,2.99,1.479,4.822,8.813
		l15.459,82.875H611.4l10.975-53.359l9.734,53.359h33.625l15.125-80.875c0,0,1-7.844,4.906-11V41.021h-37.719v20.094
		c0,0,4.219,1.625,3.563,6.469l-3.406,34.344h-0.266l-1.5-7.406l-10.828-53.5h-21.313l-11.719,61l-0.313-0.016L600.109,84
		l-2.084-16.708c0,0-0.51-3.021,2.209-5.396l1.406-1.063l-0.094-19.813H558.093z"/>
	<path fill="#F36F21" d="M217.575,70.958c0,0,0.064-18.625-11.686-24.875c0,0-10.375-6.813-25.875-6.813
		c0,0-10.75-0.875-24.625,2.438c0,0-5.274,1.799-7.25,2.875c0,0-12.625,5.125-13.625,23.25v39.375v17.959
		c0,0,0.333,8.292,3.458,14.5c3.428,6.811,9.604,9.541,9.604,9.541s11,7.208,35.063,5.625c0,0,22.292-0.542,30.083-13.292
		c0,0,3.354-5.458,4.042-11.833c0,0,0.811-5.5,0.688-14.125L217.575,70.958z M182.64,123.927c0,4.174-3.022,7.559-6.75,7.559
		s-6.75-3.385-6.75-7.559V70.739c0-4.174,3.022-7.559,6.75-7.559s6.75,3.385,6.75,7.559V123.927z"/>
	<path fill="#F36F21" d="M504.39,50.893v26.08h-32.473c0,0,0.129-6.046-0.65-8.345c-0.814-2.576-1.313-5.299-6.26-5.347
		c-1.117-0.011-4.555-0.229-6.39,4.564c-1.144,3.696,0.393,7.172,0.652,7.694c1.454,4.71,16.21,6.837,22.039,8.996
		c1.365,0.506,10.164,3.131,15.389,6.781c12.193,7.016,11.213,26.341,11.213,26.341c0,5.563-0.738,10.562-2.217,14.995
		c-1.477,4.434-3.738,8.435-6.779,11.997c-2.957,3.478-7.262,6.087-12.912,7.824c-5.65,1.74-22.611,3.941-37.23,1.174
		c-2.912-0.521-14.798-2.398-24.189-10.04v-30.253h34.035v0.65c0,0,0.217,10.825,0.393,11.607c0.174,0.782,0.336,1.466,0.65,1.956
		c3.949,6.154,11.042,3.607,12.257-1.044c0.238-0.906,1.816-5.63-0.195-10.171c-0.652-1.651-1.586-2.912-2.803-3.781
		c-1.305-0.783-2.74-1.5-4.305-2.151c-2.475-1.297-18.142-4.88-23.015-7.108c-8.96-4.146-18.736-8.563-18.713-29.862v-2.737
		c0.998-7.513,0.503-20.631,17.018-27.776c1.957-0.869,4.021-1.563,6.195-2.086c17.916-4.019,35.208,0.043,38.599,0.912
		C494.724,44.416,501.173,48.719,504.39,50.893L504.39,50.893z"/>
	<path fill="#F36F21" d="M1075.044,133.196v19.561h-42.381v-19.821c1.873-0.854,2.967-2.218,3.26-4.173
		c0.414-2.75,0.523-3.119,0.523-5.999v-17.212h-13.303v17.734l0.391,5.477c0.273,1.816,1.785,3.41,3.391,4.434v19.561h-42.379
		v-19.821c1.873-0.854,2.967-2.219,3.26-4.173c0.414-2.759,0.52-3.109,0.52-5.999V70.996c0-2.516-0.172-3.156-0.52-5.477
		c-0.301-2.002-1.455-3.287-3.26-4.434V41.003h42.379v19.821c-1.568,1.139-3.117,2.867-3.391,4.695
		c-0.256,1.713-0.391,4.4-0.391,6.258v11.997h13.303V70.996c0-2.502-0.176-3.169-0.523-5.477c-0.301-2.003-1.455-3.287-3.26-4.434
		V41.003h42.381v19.821c-1.566,1.139-3.119,2.869-3.391,4.695c-0.256,1.703-0.391,4.408-0.391,6.258v51.509l0.391,5.477
		C1071.925,130.577,1073.439,132.173,1075.044,133.196L1075.044,133.196z"/>
	<polygon fill="#F36F21" points="95.414,171.5 95.414,199.486 90.756,199.486 81.515,181.234 81.515,199.486 77.202,199.486 
		77.202,171.5 81.71,171.5 91.101,190.187 91.101,171.5 95.414,171.5 	"/>
	<polygon fill="#F36F21" points="37.667,182.44 37.667,187.151 26.135,187.151 26.135,194.77 38.965,194.77 38.965,199.486 
		21.515,199.486 21.515,171.5 38.547,171.5 38.547,176.236 26.135,176.236 26.135,182.44 37.667,182.44 	"/>
	<polygon fill="#F36F21" points="198.427,171.747 198.427,194.788 209.954,194.788 209.954,199.505 193.809,199.505 
		193.809,171.747 198.427,171.747 	"/>
	<path fill="#F36F21" d="M155.193,184.503v11.149c-1.003,1.185-2.431,2.203-4.273,3.055c-1.846,0.855-3.696,1.277-5.559,1.277
		c-2.261,0-4.262-0.553-5.988-1.667c-1.733-1.116-3.108-2.782-4.118-5.005c-1.011-2.223-1.519-4.828-1.519-7.832
		c0-3.082,0.515-5.715,1.538-7.904c1.022-2.189,2.353-3.826,3.988-4.906c1.636-1.082,3.597-1.623,5.87-1.623
		c2.737,0,4.933,0.697,6.581,2.092c1.649,1.395,2.705,3.435,3.173,6.138l-4.58,1.05c-0.338-1.439-0.971-2.541-1.889-3.303
		c-0.912-0.764-2.008-1.148-3.285-1.148c-1.967,0-3.57,0.77-4.789,2.3c-1.226,1.532-1.831,3.872-1.831,7.02
		c0,3.368,0.658,5.936,1.981,7.688c1.134,1.518,2.672,2.274,4.601,2.274c0.905,0,1.843-0.216,2.82-0.639
		c0.971-0.43,1.838-1.011,2.607-1.747v-3.552h-5.313v-4.717H155.193L155.193,184.503z"/>
	<path fill="#F36F21" d="M305.048,173.21c1.519,1.461,2.32,3.558,2.405,6.283l-4.633,0.246c-0.209-1.504-0.646-2.555-1.322-3.152
		c-0.672-0.594-1.637-0.894-2.881-0.894c-1.245,0-2.21,0.261-2.882,0.782c-0.676,0.521-1.016,1.166-1.016,1.949
		c0,0.762,0.307,1.399,0.92,1.921c0.611,0.527,2.02,1.095,4.216,1.722c2.331,0.676,4.013,1.388,5.049,2.129
		c1.036,0.744,1.83,1.707,2.378,2.881c0.548,1.18,0.822,2.605,0.822,4.287c0,2.432-0.749,4.47-2.242,6.125
		c-1.499,1.656-3.837,2.482-7.017,2.482c-5.624,0-8.759-3.199-9.391-9.598l4.522-0.541c0.509,3.578,2.176,5.37,5.004,5.37
		c1.395,0,2.496-0.364,3.298-1.101c0.808-0.732,1.205-1.637,1.205-2.719c0-0.639-0.137-1.179-0.418-1.621
		c-0.279-0.449-0.709-0.814-1.282-1.102s-1.955-0.764-4.158-1.44c-1.974-0.601-3.421-1.244-4.332-1.948
		c-0.92-0.699-1.648-1.616-2.189-2.758c-0.54-1.139-0.81-2.363-0.81-3.673c0-1.526,0.347-2.901,1.036-4.126
		c0.698-1.219,1.656-2.145,2.874-2.768c1.227-0.621,2.73-0.934,4.529-0.934C301.433,171.015,303.538,171.744,305.048,173.21
		L305.048,173.21z"/>
	<rect x="247.347" y="171.5" fill="#F36F21" width="4.621" height="27.986"/>
	<polygon fill="#F36F21" points="364.572,171.5 364.572,199.486 359.932,199.486 359.932,187.25 350.843,187.25 350.843,199.486 
		346.223,199.486 346.223,171.5 350.843,171.5 350.843,182.511 359.932,182.511 359.932,171.5 	"/>
	<polygon fill="#F36F21" points="448.862,171.731 448.862,194.772 460.39,194.772 460.39,199.489 444.243,199.489 444.243,171.731 
		448.862,171.731 	"/>
	<path fill="#F36F21" d="M617.38,172.688c1.637-1.082,3.598-1.623,5.871-1.623c2.736,0,4.932,0.697,6.582,2.092
		c1.648,1.395,2.705,3.435,3.172,6.138l-4.58,1.05c-0.338-1.439-0.971-2.541-1.889-3.303c-0.912-0.764-2.008-1.148-3.285-1.148
		c-1.967,0-3.57,0.77-4.789,2.3c-1.225,1.532-1.83,3.872-1.83,7.019c0,3.369,0.658,5.937,1.98,7.689
		c1.133,1.518,2.672,2.274,4.6,2.274c0.906,0,1.844-0.216,2.822-0.639c0.971-0.43,1.836-1.011,2.605-1.747v-3.552h-5.311v-4.717
		h9.982v11.149c-1.002,1.185-2.43,2.203-4.273,3.055c-1.846,0.855-3.695,1.277-5.559,1.277c-2.26,0-4.262-0.553-5.988-1.667
		c-1.732-1.115-3.107-2.782-4.119-5.005c-1.01-2.223-1.518-4.827-1.518-7.832c0-3.082,0.516-5.715,1.537-7.904
		C614.416,175.404,615.746,173.768,617.38,172.688L617.38,172.688z"/>
	<polygon fill="#F36F21" points="573.562,171.519 573.562,199.505 568.902,199.505 559.662,181.253 559.662,199.505 
		555.349,199.505 555.349,171.519 559.857,171.519 569.248,190.205 569.248,171.519 573.562,171.519 	"/>
	<path fill="#F36F21" d="M671.785,171.521h4.621v15.156c0,2.359,0.053,3.89,0.168,4.602c0.203,1.236,0.691,2.188,1.461,2.865
		c0.77,0.672,1.785,1.011,3.043,1.011c1.068,0,1.943-0.241,2.619-0.716c0.672-0.479,1.133-1.143,1.383-1.988
		c0.246-0.841,0.369-2.658,0.369-5.449v-15.48h4.641v14.699c0,3.753-0.203,6.471-0.6,8.139c-0.404,1.676-1.303,3.031-2.711,4.066
		c-1.408,1.041-3.264,1.557-5.564,1.557c-2.391,0-4.262-0.43-5.604-1.289c-1.342-0.855-2.313-2.066-2.918-3.623
		c-0.607-1.557-0.908-4.43-0.908-8.621V171.521L671.785,171.521z"/>
	<path fill="#F36F21" d="M803.619,173.23c1.648,1.395,2.705,3.435,3.172,6.138l-4.58,1.05c-0.338-1.439-0.971-2.541-1.889-3.303
		c-0.912-0.764-2.008-1.148-3.285-1.148c-1.967,0-3.57,0.77-4.789,2.3c-1.225,1.532-1.83,3.872-1.83,7.019
		c0,3.369,0.658,5.937,1.98,7.689c1.135,1.518,2.672,2.274,4.602,2.274c0.904,0,1.842-0.216,2.82-0.639
		c0.971-0.43,1.838-1.011,2.607-1.747v-3.552h-5.313v-4.717h9.982v11.149c-1.002,1.185-2.43,2.203-4.273,3.055
		c-1.844,0.855-3.695,1.277-5.559,1.277c-2.26,0-4.262-0.553-5.988-1.667c-1.732-1.115-3.107-2.782-4.117-5.005
		c-1.012-2.223-1.52-4.827-1.52-7.832c0-3.082,0.516-5.715,1.539-7.904s2.352-3.826,3.988-4.906
		c1.635-1.082,3.596-1.623,5.869-1.623C799.775,171.139,801.97,171.836,803.619,173.23L803.619,173.23z"/>
	<polygon fill="#F36F21" points="850.386,182.44 861.919,182.44 861.919,187.151 850.386,187.151 850.386,194.77 863.216,194.77 
		863.216,199.486 845.765,199.486 845.765,171.5 862.798,171.5 862.798,176.236 850.386,176.236 850.386,182.44 	"/>
	<polygon fill="#F36F21" points="946.609,171.729 946.609,194.77 958.134,194.77 958.134,199.486 941.99,199.486 941.99,171.729 
		946.609,171.729 	"/>
	<path fill="#F36F21" d="M775.576,70.958c0,0,0.064-18.625-11.686-24.875c0,0-10.375-6.813-25.875-6.813
		c0,0-10.75-0.875-24.625,2.438c0,0-5.273,1.799-7.25,2.875c0,0-12.625,5.125-13.625,23.25v39.375v17.959
		c0,0,0.334,8.292,3.459,14.5c3.428,6.811,9.604,9.541,9.604,9.541s11,7.208,35.063,5.625c0,0,22.291-0.542,30.084-13.292
		c0,0,3.354-5.458,4.041-11.833c0,0,0.811-5.5,0.688-14.125L775.576,70.958z M740.64,123.927c0,4.174-3.021,7.559-6.75,7.559
		s-6.75-3.385-6.75-7.559V70.739c0-4.174,3.021-7.559,6.75-7.559s6.75,3.385,6.75,7.559V123.927z"/>
	<path fill="#F36F21" d="M313.071,115.854c0-2.783-0.283-5.217-0.85-7.304c-0.563-2.086-1.367-3.824-2.41-5.216
		c-1.043-1.391-2.5-2.608-4.368-3.651c-1.871-1.044-4.196-1.956-6.978-2.737c3.304-0.782,6.041-1.999,8.214-3.652
		c2.175-1.651,3.826-3.694,4.956-6.128c1.218-2.436,2.108-5.021,2.675-7.76c0.563-2.738,0.919-5.63,0.847-8.671
		c-0.455-19.151-9.997-23.647-12.258-25.036c-9.676-5.406-26.732-4.435-26.732-4.435l-0.09-0.134
		c-0.044,0-48.549-0.127-48.549-0.127v20.082c0.956,0.607,1.716,1.281,2.282,2.021c0.563,0.738,0.891,1.541,0.978,2.412
		c0.174,0.869,0.303,1.76,0.39,2.672c0.087,0.913,0.131,54.052,0.131,54.052v0.262v0.26v0.262v0.26
		c0.144,8.84-2.824,9.215-3.78,9.65v19.821h42.379v-19.56c-0.955-0.61-1.716-1.283-2.281-2.021c-0.564-0.74-1.174-1.374-1.549-6.155
		l0.048-15.817l1.436,0.261c2.347,0.085,4.26,0.413,5.738,0.978s2.478,1.412,2.998,2.542c0.522,1.13,0.935,2.521,1.239,4.173
		c0.305,1.652,0.457,3.607,0.457,5.869c-0.087,4.346-0.108,8.085-0.065,11.215c0.044,3.129,0.152,5.65,0.325,7.563
		c0.174,1.912,1.457,10.845,1.5,10.889c0.044,0.043,0.109,0.065,0.196,0.065h37.425v-19.561
		C311.765,133.083,313.071,115.854,313.071,115.854z M276.682,85.125c0,0-1.479,2.239-6.917,1.802l-3.583-0.031V64.125
		c0,0,3.583,0.292,5.625,0.292c0,0,6.708-0.208,7.542,7.958C279.348,72.375,280.765,80.875,276.682,85.125z"/>
	<path fill="#F36F21" d="M871.183,115.854c0-2.783-0.283-5.217-0.85-7.304c-0.564-2.086-1.367-3.824-2.41-5.216
		c-1.043-1.391-2.5-2.608-4.369-3.651c-1.871-1.044-4.195-1.956-6.977-2.737c3.303-0.782,6.041-1.999,8.213-3.652
		c2.176-1.651,3.826-3.694,4.957-6.128c1.217-2.436,2.107-5.021,2.674-7.76c0.564-2.738,0.92-5.63,0.848-8.671
		c-0.455-19.151-9.998-23.647-12.258-25.036c-9.676-5.406-26.732-4.435-26.732-4.435l-0.09-0.134
		c-0.045,0-48.549-0.127-48.549-0.127v20.082c0.955,0.607,1.715,1.281,2.281,2.021c0.564,0.738,0.891,1.541,0.979,2.412
		c0.174,0.869,0.303,1.76,0.389,2.672c0.088,0.913,0.131,54.052,0.131,54.052v0.262v0.26v0.262v0.26
		c0.145,8.84-2.824,9.215-3.779,9.65v19.821h42.379v-19.56c-0.955-0.61-1.717-1.283-2.281-2.021
		c-0.564-0.74-1.174-1.374-1.549-6.155l0.047-15.817l1.436,0.261c2.348,0.085,4.26,0.413,5.738,0.978s2.479,1.412,2.998,2.542
		c0.523,1.13,0.936,2.521,1.24,4.173c0.305,1.652,0.457,3.607,0.457,5.869c-0.088,4.346-0.109,8.085-0.066,11.215
		c0.045,3.129,0.152,5.65,0.326,7.563s1.457,10.845,1.5,10.889c0.043,0.043,0.109,0.065,0.195,0.065h37.426v-19.561
		C869.876,133.083,871.183,115.854,871.183,115.854z M834.792,85.125c0,0-1.479,2.239-6.916,1.802l-3.584-0.031V64.125
		c0,0,3.584,0.292,5.625,0.292c0,0,6.709-0.208,7.543,7.958C837.46,72.375,838.876,80.875,834.792,85.125z"/>
	<path fill="#F36F21" d="M412.042,60.171c-0.522-2.434-4.09-13.182-17.475-16.951c-1.652-0.436-5.094-1.804-19.431-2.217h-48.248
		v20.082c0.957,0.434,4.293,0.747,4.434,8.606v54.638c-0.058,8.046-3.477,8.258-4.434,8.606v19.821h49.291
		c2.609,0,11.523-0.624,14.043-0.799c3.924-0.657,17.292-4,22.08-19.674c2.003-5.536,1.303-32.997,1.303-35.867
		C413.605,96.417,414.557,71,412.042,60.171z M372.489,129.167h-6.35V65.416c0,0,7.083-0.083,9.333,1.667
		c0,0,3.75,1.165,3.333,9.749l0.032,28.083v15.502C378.838,120.417,379.005,128.584,372.489,129.167z"/>
	<path fill="#F36F21" d="M912.015,64.75l-0.041,58.334c0,0,0.75,9.083-3.834,9.833v19.84l42.469-0.049v-19.438
		c0,0-2.688-1.406-3.375-4.531c0,0-0.469-2.949-0.428-8.115l0.041-55.582c0,0,4.834-0.418,5.668,3.916c0,0,0.207,0.333,0.375,2.375
		v20.209l24.688,0.041v-50.58h-96.313v50.455l24.5-0.063l0.125-19.75c0,0,0.291-4.187,2.166-5.562
		C908.056,66.084,909.765,65,912.015,64.75z"/>
	<path fill="#F36F21" d="M509.441,171.51h-4.908l-8.932,27.986h4.926l1.889-6.36h9.162l2.006,6.36h5.039L509.441,171.51z
		 M503.806,188.437l3.125-10.375l3.168,10.375H503.806z"/>
	<path fill="#F36F21" d="M740.675,171.51h-4.908l-8.932,27.986h4.926l1.889-6.36h9.162l2.006,6.36h5.039L740.675,171.51z
		 M735.041,188.437l3.125-10.375l3.168,10.375H735.041z"/>
	<path fill="#F36F21" d="M1007.187,171.522h-4.908l-8.932,27.986h4.926l1.889-6.36h9.162l2.006,6.36h5.039L1007.187,171.522z
		 M1001.552,188.449l3.125-10.375l3.168,10.375H1001.552z"/>
	<path fill="#F36F21" d="M1071.115,187.099c-0.768-1.173-1.83-2.001-3.193-2.483c0.953-0.521,1.729-1.328,2.328-2.416
		c0.6-1.089,0.898-2.308,0.898-3.655c0-1.461-0.352-2.776-1.049-3.931c-0.703-1.158-1.564-1.967-2.58-2.423
		c-1.018-0.462-2.783-0.69-5.283-0.69h-9.189v27.986h7.814c3.381,0,5.537-0.118,6.471-0.346c1.334-0.334,2.494-1.198,3.471-2.606
		c0.979-1.4,1.475-3.128,1.475-5.161C1072.277,189.691,1071.892,188.266,1071.115,187.099z M1057.656,176.192
		c0,0,5.188-0.094,6.609,0.109c0,0,2.516-0.031,2.328,3.469c0,0,0.078,2.313-2.469,2.797l-6.469,0.063V176.192z M1064.71,194.717
		l-7.051,0.072v-7.497c0,0,4.889-0.092,6.439,0.146c0,0,3.514-0.134,3.311,3.942C1067.41,191.38,1067.515,194.239,1064.71,194.717z"
		/>
	<circle fill="none" stroke="#373435" stroke-width="3" cx="1103.386" cy="22.426" r="17.615"/>
	<text transform="matrix(1 0 0 1 1090.3491 29.2412)" font-family="'Arial-BoldMT'" font-size="18.0599">TM</text>
</g>
</svg>
